<?xml version="1.0" standalone="no"?>
<!DOCTYPE svg PUBLIC "-//W3C//DTD SVG 20010904//EN"
 "http://www.w3.org/TR/2001/REC-SVG-20010904/DTD/svg10.dtd">
<svg version="1.0" xmlns="http://www.w3.org/2000/svg"
 width="1024.000000pt" height="1024.000000pt" viewBox="0 0 1024.000000 1024.000000"
 preserveAspectRatio="xMidYMid meet">

<g transform="translate(0.000000,1024.000000) scale(0.100000,-0.100000)"
fill="#000000" stroke="none">
<path d="M4965 10176 c-38 -8 -100 -25 -138 -39 l-67 -26 -63 18 c-95 29 -105
31 -210 41 -220 22 -471 -37 -662 -155 l-70 -43 -105 5 c-216 11 -475 -74
-720 -236 -97 -64 -228 -184 -254 -234 -13 -24 -30 -36 -60 -46 -183 -57 -519
-322 -646 -510 -54 -81 -117 -215 -126 -268 -5 -35 -18 -52 -89 -117 -183
-167 -329 -391 -395 -604 -12 -37 -25 -113 -30 -170 -9 -100 -11 -106 -55
-172 -129 -194 -190 -405 -190 -655 0 -171 15 -244 71 -360 32 -66 33 -73 22
-110 -8 -24 -12 -101 -12 -195 0 -129 4 -169 22 -238 32 -118 88 -243 156
-347 68 -105 215 -254 298 -303 73 -43 181 -81 255 -88 l59 -6 39 -77 c49 -95
169 -218 269 -275 68 -40 68 -40 63 -77 -3 -21 -24 -65 -48 -100 -52 -78 -68
-119 -69 -182 0 -56 22 -109 57 -137 23 -18 23 -20 9 -48 -25 -48 -126 -133
-201 -168 -211 -101 -463 -46 -561 122 l-26 44 40 45 c52 59 72 119 72 216 0
141 -59 283 -166 398 -139 150 -324 221 -516 197 -88 -11 -89 -15 -18 -97 119
-138 141 -234 96 -426 -14 -61 -26 -133 -26 -160 0 -58 38 -143 75 -167 21
-14 25 -24 25 -67 0 -59 39 -182 81 -256 96 -168 279 -306 480 -363 108 -31
278 -37 407 -16 172 29 303 81 452 180 112 75 249 207 305 294 22 34 46 62 53
62 7 0 34 11 61 24 86 44 180 169 232 311 12 33 23 62 25 64 2 2 18 -9 36 -24
18 -16 63 -42 99 -60 52 -25 87 -54 169 -138 l103 -107 -6 -103 c-15 -236 -96
-404 -230 -474 -33 -16 4 -12 -567 -64 -857 -76 -2014 -199 -2080 -220 -56
-18 -165 -96 -208 -147 -114 -139 -112 -125 -112 -802 0 -311 4 -593 9 -628
19 -125 92 -221 213 -281 91 -45 146 -42 508 22 l295 53 94 -86 c52 -47 112
-101 134 -121 l40 -36 1 -294 1 -294 28 -56 c62 -126 162 -200 273 -200 33 -1
185 17 339 39 316 46 477 63 850 92 653 50 824 55 1885 55 1000 0 1068 -2
1780 -41 381 -20 943 -80 1325 -140 179 -29 241 -27 313 7 66 32 163 133 201
210 l30 64 -20 115 c-11 63 -35 191 -53 283 l-34 169 41 36 c38 34 143 130
190 175 14 14 28 17 50 13 175 -32 652 -97 687 -94 107 10 231 100 291 210
l34 63 0 690 0 690 -23 49 c-53 117 -161 204 -285 231 -87 18 -470 66 -1113
136 l-482 53 40 59 c94 138 140 294 142 477 1 93 -3 128 -21 185 -28 88 -83
161 -150 200 -33 19 -51 35 -48 44 3 7 8 59 11 115 12 188 -28 382 -111 551
-42 84 -127 205 -145 205 -4 0 -10 -23 -14 -51 -11 -79 -62 -267 -96 -348 -35
-86 -88 -182 -124 -226 l-24 -30 -5 35 c-39 261 -61 341 -133 480 -54 105 -92
159 -98 139 -28 -93 -69 -196 -118 -299 l-60 -125 -38 80 c-43 90 -103 260
-122 350 -8 38 -13 133 -13 260 0 214 12 299 70 500 47 160 159 392 204 420
15 9 36 -42 57 -137 10 -43 21 -78 25 -78 12 0 81 95 117 160 35 63 77 182 96
273 l12 62 47 -72 c101 -155 144 -318 160 -613 l2 -45 49 50 c61 62 146 190
179 270 59 144 78 243 86 449 l6 170 52 -80 c29 -43 76 -130 106 -193 30 -62
57 -109 60 -104 15 23 37 206 37 298 0 104 -19 250 -44 345 -14 53 -14 56 9
95 12 22 34 74 46 115 22 68 24 93 23 255 0 163 -3 190 -27 280 -34 127 -118
299 -197 403 -82 109 -199 216 -310 282 -113 67 -116 70 -200 200 -117 181
-275 318 -474 415 -61 29 -129 59 -151 66 -24 8 -69 41 -113 82 -161 150 -406
277 -665 344 -92 24 -121 27 -292 28 l-190 1 -85 42 c-132 65 -243 93 -385 98
-77 2 -145 -1 -190 -10z m340 -195 c70 -25 157 -82 173 -114 23 -45 19 -60
-20 -82 -21 -11 -38 -23 -38 -26 0 -3 35 -9 78 -12 97 -8 240 -47 346 -93 45
-20 88 -38 96 -41 22 -7 -45 51 -112 97 -66 46 -96 59 -157 68 -49 8 -60 22
-36 46 48 47 269 54 425 13 194 -51 388 -154 500 -266 57 -57 91 -82 135 -100
102 -41 296 -140 370 -189 147 -98 288 -259 367 -419 23 -46 46 -83 52 -83 22
0 226 -129 297 -187 182 -150 274 -340 284 -588 3 -65 1 -98 -3 -80 -5 17 -32
76 -61 132 -68 132 -146 210 -245 243 -71 23 -226 53 -234 45 -3 -3 21 -16 54
-31 57 -25 278 -164 271 -170 -2 -2 -62 16 -133 40 -313 106 -694 142 -979 92
-188 -33 -422 -109 -725 -236 -171 -71 -365 -191 -656 -407 -247 -183 -235
-175 -201 -133 122 152 358 352 535 454 46 27 81 50 78 53 -2 3 -13 0 -24 -6
-11 -6 -58 -24 -104 -41 -97 -35 -257 -126 -361 -204 -40 -30 -129 -109 -199
-176 -203 -194 -157 -120 72 115 153 158 183 195 110 134 -85 -70 -182 -141
-186 -136 -2 2 40 57 95 123 76 92 132 146 245 239 81 65 152 128 158 138 11
22 15 24 -72 -32 -69 -43 -215 -149 -299 -215 -104 -83 -391 -437 -535 -660
-42 -65 -80 -116 -83 -112 -10 9 137 301 207 412 105 166 306 413 412 506 72
63 252 195 354 260 98 62 353 205 427 238 112 50 383 144 532 184 11 3 -18 3
-65 1 -99 -5 -308 -52 -400 -89 l-64 -26 -38 37 c-45 44 -85 120 -94 180 -6
40 -5 42 32 66 44 29 136 60 234 79 80 15 390 14 479 -2 115 -21 74 -3 -76 34
-209 50 -280 59 -418 53 -195 -9 -360 -52 -409 -106 -25 -28 -32 -27 -39 7 -3
15 -16 54 -28 87 -19 51 -41 79 -151 192 -113 114 -129 135 -126 160 l3 28 80
-1 c88 -1 181 -22 264 -59 70 -33 49 -8 -37 43 -138 82 -267 128 -389 137
-156 13 -245 54 -256 117 -14 87 -41 152 -80 195 -36 39 -39 46 -25 59 47 47
276 56 393 15z m-767 -17 c177 -37 312 -129 312 -214 0 -47 -12 -53 -122 -61
-56 -4 -114 -12 -128 -17 -21 -8 -14 -11 45 -17 227 -22 417 -116 626 -309
111 -103 239 -271 239 -314 0 -5 -18 -15 -40 -22 -30 -10 -49 -11 -75 -3 -19
6 -35 7 -35 3 0 -10 55 -30 82 -30 24 0 66 -21 149 -76 47 -31 77 -44 102 -44
20 0 38 -4 41 -8 3 -5 10 -40 17 -78 20 -123 -19 -197 -135 -256 -46 -23 -78
-32 -131 -35 -64 -4 -74 -2 -116 25 -53 34 -88 96 -90 158 -1 21 -4 30 -6 19
-9 -35 -35 -57 -65 -53 -16 3 -28 4 -28 2 0 -1 14 -33 32 -70 28 -59 33 -83
36 -164 l4 -95 -201 -188 c-209 -196 -270 -261 -365 -389 -69 -92 -130 -127
-233 -136 -60 -5 -63 -4 -96 29 -37 37 -57 102 -57 186 0 72 46 145 192 302
159 172 237 229 368 266 l45 13 -65 1 c-88 1 -167 -19 -312 -80 -68 -29 -143
-54 -169 -57 -53 -5 -158 20 -205 48 -34 21 -63 80 -65 128 l0 27 -11 -25
c-64 -147 -73 -163 -134 -219 -34 -32 -89 -71 -121 -85 -32 -15 -71 -33 -88
-40 l-30 -14 38 -7 c24 -5 60 -2 103 9 37 9 69 15 71 12 3 -2 -12 -23 -33 -46
-71 -79 -164 -107 -296 -90 -98 12 -153 36 -202 86 -102 104 -124 173 -89 277
11 31 17 57 14 57 -4 0 -26 -20 -50 -44 l-43 -44 -1 -129 c-2 -124 -3 -131
-35 -195 -39 -79 -87 -125 -193 -183 -116 -63 -131 -94 -187 -365 -5 -27 -15
-39 -45 -54 -60 -29 -154 -33 -208 -9 -62 28 -116 77 -145 134 l-24 48 -59 -1
c-148 -2 -225 142 -170 319 13 41 67 89 116 102 21 6 70 11 109 11 88 0 115
-18 151 -99 l24 -55 30 55 c34 61 100 133 143 156 22 11 45 14 87 10 l56 -6
-28 30 c-31 33 -59 113 -59 163 1 73 45 148 154 263 178 189 388 275 519 213
71 -33 130 -105 157 -191 l24 -72 13 69 c8 41 34 110 65 172 43 85 66 118 135
188 90 92 174 151 262 185 43 18 78 23 151 23 117 1 177 -22 245 -95 40 -43
45 -53 45 -94 0 -25 -7 -62 -15 -82 -8 -20 -14 -37 -13 -39 2 -1 28 4 58 12
30 8 77 14 105 15 50 1 50 1 15 10 -71 20 -99 84 -65 150 21 39 87 86 148 104
65 19 225 19 297 0 98 -26 74 -4 -55 49 -105 43 -125 59 -125 98 0 15 -4 28
-10 28 -5 0 -10 -6 -10 -13 0 -21 -30 -42 -80 -56 -25 -7 -72 -27 -105 -43
-90 -46 -183 -37 -240 22 -23 24 -26 34 -21 62 9 50 50 130 81 161 15 15 26
30 23 33 -3 2 -73 -49 -155 -115 -142 -115 -151 -120 -214 -131 -36 -6 -81
-10 -100 -8 l-34 3 3 65 c2 55 0 62 -10 47 -124 -181 -216 -280 -332 -356 -89
-58 -156 -81 -233 -81 -90 0 -143 33 -143 90 0 12 -4 18 -10 15 -5 -3 -10 -17
-10 -31 0 -35 -23 -76 -63 -111 -64 -56 -435 -253 -477 -253 -5 0 -25 30 -44
68 -61 119 -62 119 -64 -4 -1 -83 3 -124 18 -173 34 -109 0 -199 -102 -275
-33 -25 -50 -29 -155 -37 -65 -6 -131 -14 -147 -19 -42 -14 -44 -13 -51 23
-12 51 -41 101 -80 136 -21 18 -39 30 -41 28 -2 -2 3 -21 12 -43 23 -54 16
-165 -15 -225 -12 -25 -45 -71 -72 -103 -61 -72 -66 -100 -40 -218 24 -109 45
-210 46 -219 0 -4 -26 -27 -57 -53 -32 -26 -58 -51 -58 -57 0 -5 26 4 58 20
135 68 251 78 369 29 76 -31 117 -63 139 -108 21 -42 29 -150 16 -207 -5 -24
-8 -43 -6 -43 16 0 62 42 96 88 77 104 221 138 333 80 60 -31 123 -97 149
-156 l19 -42 24 35 c30 44 95 89 162 111 127 41 325 -36 370 -145 12 -27 17
-29 83 -36 140 -13 230 -71 289 -186 34 -66 38 -193 9 -279 -99 -294 -450
-477 -797 -416 -154 27 -310 93 -385 164 -16 14 -28 22 -28 18 0 -12 35 -54
101 -123 l60 -62 -123 -61 c-174 -85 -302 -109 -414 -75 -98 29 -157 117 -158
235 l-1 65 -75 0 c-59 0 -85 5 -124 24 -62 30 -122 90 -147 144 l-19 42 0 -35
c0 -48 50 -149 93 -187 19 -17 33 -34 30 -37 -10 -10 -144 -6 -192 5 -123 28
-250 126 -300 233 -16 33 -37 94 -47 133 -17 66 -21 74 -50 83 -174 58 -192
458 -34 770 l33 65 13 -31 c7 -18 16 -98 20 -179 l7 -148 57 -66 c31 -36 66
-83 79 -103 30 -50 38 -132 18 -181 -20 -47 -10 -47 34 -1 45 47 79 64 129 64
80 0 149 -46 198 -133 16 -28 61 -82 100 -120 83 -79 169 -124 259 -133 l60
-7 6 -54 c6 -54 52 -163 69 -163 4 0 8 30 8 68 0 82 24 139 72 176 48 36 107
34 231 -6 l99 -31 152 17 c173 21 177 20 281 -53 159 -111 344 -105 444 16 48
59 64 126 17 74 -31 -34 -144 -83 -206 -88 -80 -8 -125 3 -166 39 -53 47 -63
72 -57 156 3 39 3 72 -1 72 -4 0 -38 -16 -77 -36 -205 -103 -455 -99 -562 9
l-42 42 -25 -24 c-139 -131 -382 -131 -507 1 -84 88 -137 282 -103 374 6 15 9
28 7 30 -2 2 -25 -8 -52 -22 -46 -23 -58 -25 -150 -22 -110 4 -140 15 -193 70
-74 74 -117 227 -93 331 16 71 59 136 122 184 28 21 57 51 66 67 l15 28 -30
-17 c-29 -17 -31 -17 -87 9 -68 31 -81 46 -90 102 -19 132 104 394 242 512 26
23 75 65 108 93 71 61 141 95 212 105 l52 6 31 -66 c18 -37 34 -65 37 -62 2 2
0 13 -5 23 -19 35 -24 102 -12 160 33 160 160 300 355 394 72 35 189 68 200
58 2 -3 0 -52 -4 -109 -5 -61 -5 -109 0 -114 5 -6 9 0 9 15 0 38 36 145 64
192 49 82 135 157 241 209 114 57 170 72 272 73 104 0 132 -13 168 -78 11 -20
25 -37 31 -37 6 0 44 17 85 37 57 29 96 60 178 141 145 146 196 175 369 211
l74 16 32 95 c39 114 50 136 77 151 29 15 17 22 -17 9 -16 -6 -54 -35 -84 -64
-83 -79 -154 -125 -211 -136 -83 -16 -158 -55 -290 -153 -26 -18 -27 -18 -94
2 -37 12 -70 19 -72 17 -2 -2 12 -14 32 -26 68 -42 67 -65 -5 -135 l-41 -40
-47 27 c-97 54 -210 55 -387 2 -162 -48 -300 -84 -321 -84 -29 0 -34 16 -19
72 16 64 51 114 127 181 186 163 446 266 674 267 86 0 183 -19 211 -42 9 -7
18 5 34 41 33 78 97 126 217 166 138 45 318 56 450 29z m-1888 -790 c0 -35
-59 -95 -185 -189 -60 -46 -162 -137 -225 -202 -106 -110 -165 -161 -174 -152
-2 2 0 29 5 59 6 42 22 74 65 137 134 196 320 353 451 382 44 9 63 -1 63 -35z
m1664 -1064 c56 -22 87 -46 70 -58 -5 -4 -34 -23 -64 -43 -65 -43 -105 -84
-119 -120 -5 -14 -8 -94 -6 -179 3 -144 4 -154 24 -161 58 -22 72 -150 27
-244 -52 -106 -199 -195 -335 -203 -117 -6 -169 17 -276 126 -58 60 -107 99
-155 126 -38 20 -70 35 -70 31 0 -3 18 -30 40 -59 22 -29 40 -55 40 -58 0 -11
-78 -37 -160 -54 -136 -27 -261 0 -334 72 -43 43 -56 84 -56 172 0 114 29 167
124 231 151 102 247 135 391 135 80 0 111 -5 156 -22 71 -28 134 -73 158 -113
l18 -30 5 78 c6 110 38 176 130 268 132 131 242 161 392 105z m2894 -239 c46
-24 63 -43 97 -109 30 -62 28 -80 -4 -28 -48 77 -141 135 -221 137 l-45 1 30
14 c36 17 92 11 143 -15z m523 -29 c20 -15 48 -41 62 -58 25 -29 77 -124 77
-139 0 -4 -21 12 -47 35 -64 56 -96 71 -163 77 -51 5 -93 -3 -180 -33 -25 -9
41 35 94 62 40 21 59 25 113 22 l65 -3 -38 33 c-45 39 -33 42 17 4z m-1090
-13 c20 -10 79 -94 79 -112 0 -4 -19 8 -43 27 -81 66 -164 84 -266 56 -60 -16
-63 -5 -4 13 84 28 199 35 234 16z m506 -154 c79 -47 103 -132 103 -364 0
-139 -16 -285 -41 -385 -12 -47 -29 -62 -29 -25 0 35 -58 198 -104 294 -24 50
-78 141 -120 204 -42 62 -76 123 -76 135 1 29 33 97 56 117 64 55 142 64 211
24z m-514 -58 c69 -41 70 -47 52 -252 -23 -258 -33 -336 -62 -459 l-25 -109
-57 159 c-76 210 -128 318 -184 380 -51 56 -57 83 -36 158 21 76 66 124 137
147 45 14 129 3 175 -24z m1096 -2 c50 -25 100 -94 124 -170 20 -63 22 -90 21
-275 0 -184 -3 -216 -26 -315 -14 -60 -41 -150 -61 -200 l-34 -90 -7 95 c-22
298 -88 491 -241 705 -49 68 -56 83 -51 111 8 41 58 109 99 134 39 24 135 27
176 5z m-1675 -185 c46 -28 65 -65 55 -105 -53 -195 -88 -490 -102 -850 l-2
-60 -41 66 c-60 95 -148 274 -210 427 -30 73 -64 152 -75 175 -18 34 -21 52
-16 109 10 122 55 188 162 240 52 26 68 29 127 25 45 -3 77 -11 102 -27z
m-535 -361 c37 -23 38 -16 -13 -139 -55 -134 -105 -420 -106 -609 l-1 -66 -23
28 c-69 85 -164 321 -186 463 -23 150 35 262 170 323 58 26 116 26 159 0z
m-4002 -835 l67 -67 3 -62 c4 -113 67 -231 139 -261 62 -26 66 -18 25 46 -39
60 -61 130 -61 194 l0 33 58 -20 c73 -26 247 -34 311 -15 l45 14 28 -57 c36
-72 101 -132 183 -171 l65 -30 -28 -22 c-39 -33 -80 -52 -149 -70 -118 -31
-209 -12 -280 56 -39 37 -47 34 -31 -13 26 -77 98 -150 174 -180 28 -10 28
-11 10 -24 -10 -8 -43 -20 -73 -26 -170 -38 -365 89 -438 286 -11 28 -40 74
-66 103 -53 61 -92 136 -114 218 -15 59 -20 187 -9 242 6 31 7 30 40 -38 23
-49 54 -90 101 -136z m1626 -261 c-13 -2 -35 -2 -50 0 -16 2 -5 4 22 4 28 0
40 -2 28 -4z m-106 -9 c-3 -3 -12 -4 -19 -1 -8 3 -5 6 6 6 11 1 17 -2 13 -5z
m176 -1 c-7 -2 -19 -2 -25 0 -7 3 -2 5 12 5 14 0 19 -2 13 -5z m-243 -18 c-46
-18 -64 -17 -25 0 17 8 37 14 45 14 8 0 -1 -7 -20 -14z m284 7 c3 -5 -9 -16
-27 -26 -27 -14 -29 -15 -12 -1 11 9 19 21 18 26 -4 11 14 12 21 1z m703 -34
c-3 -8 -6 -5 -6 6 -1 11 2 17 5 13 3 -3 4 -12 1 -19z m-1067 -2 c0 -2 -7 -7
-16 -10 -8 -3 -12 -2 -9 4 6 10 25 14 25 6z m-40 -20 c0 -2 -25 -20 -55 -40
-30 -20 -55 -34 -55 -31 0 4 101 75 107 75 2 0 3 -2 3 -4z m315 -6 c-3 -5 -12
-10 -18 -10 -7 0 -6 4 3 10 19 12 23 12 15 0z m334 6 c-2 -2 -24 -13 -49 -25
-25 -12 -36 -15 -26 -6 15 11 16 15 5 16 -8 1 2 5 21 9 46 10 54 11 49 6z
m-96 -23 c-7 -2 -19 -2 -25 0 -7 3 -2 5 12 5 14 0 19 -2 13 -5z m-293 -7 c0
-2 -7 -7 -16 -10 -8 -3 -12 -2 -9 4 6 10 25 14 25 6z m243 -3 c-7 -2 -19 -2
-25 0 -7 3 -2 5 12 5 14 0 19 -2 13 -5z m-46 -9 c-3 -3 -12 -4 -19 -1 -8 3 -5
6 6 6 11 1 17 -2 13 -5z m-44 -11 c-7 -2 -19 -2 -25 0 -7 3 -2 5 12 5 14 0 19
-2 13 -5z m-46 -9 c-3 -3 -12 -4 -19 -1 -8 3 -5 6 6 6 11 1 17 -2 13 -5z m-40
-10 c-3 -3 -12 -4 -19 -1 -8 3 -5 6 6 6 11 1 17 -2 13 -5z m-447 -8 c0 -2 -8
-10 -17 -17 -16 -13 -17 -12 -4 4 13 16 21 21 21 13z m-50 -40 c0 -2 -8 -10
-17 -17 -16 -13 -17 -12 -4 4 13 16 21 21 21 13z m560 -11 c-14 -8 -29 -14
-35 -14 -5 0 1 6 15 14 14 8 30 14 35 14 6 0 -1 -6 -15 -14z m-600 -19 c0 -2
-8 -10 -17 -17 -16 -13 -17 -12 -4 4 13 16 21 21 21 13z m-183 -122 c-3 -3
-12 -4 -19 -1 -8 3 -5 6 6 6 11 1 17 -2 13 -5z m336 -1 c-7 -2 -19 -2 -25 0
-7 3 -2 5 12 5 14 0 19 -2 13 -5z m-115 -10 c-10 -2 -28 -2 -40 0 -13 2 -5 4
17 4 22 1 32 -1 23 -4z m3573 -140 c26 -27 61 -70 79 -97 34 -51 107 -211 91
-202 -5 3 -28 38 -52 78 -59 100 -138 218 -162 246 -40 43 -1 21 44 -25z
m-1824 -25 c-3 -8 -6 -5 -6 6 -1 11 2 17 5 13 3 -3 4 -12 1 -19z m878 -280 c0
-134 4 -275 8 -314 l9 -71 -35 -6 c-78 -12 -177 33 -218 100 -68 109 -31 214
150 432 46 56 84 101 85 101 0 0 1 -109 1 -242z m-1294 75 c119 -212 348 -503
642 -816 71 -76 128 -139 126 -142 -14 -13 -263 181 -380 297 -129 128 -297
387 -369 568 -11 28 -29 73 -40 100 -11 28 -18 50 -16 50 2 0 19 -26 37 -57z
m3814 -239 c36 -175 31 -306 -16 -461 -24 -76 -50 -94 -150 -101 -57 -4 -75
-1 -120 21 -30 14 -67 38 -84 53 l-29 26 22 39 c12 21 51 78 86 128 80 113
133 221 188 385 l43 128 22 -69 c12 -38 29 -105 38 -149z m-555 111 c77 -220
82 -585 9 -728 -22 -43 -81 -76 -135 -77 -43 0 -106 23 -158 59 l-44 31 14 46
c8 26 14 57 14 68 0 12 27 66 60 120 75 124 107 208 161 414 23 89 43 161 45
160 1 -2 16 -43 34 -93z m-1125 -51 c39 -35 40 -35 7 -17 -19 10 -51 38 -71
63 -51 62 -62 85 -14 32 21 -24 56 -59 78 -78z m-356 -359 c6 -49 15 -112 20
-138 8 -45 7 -49 -17 -65 -38 -25 -169 -29 -213 -7 -56 28 -107 85 -125 137
-16 48 -16 49 15 114 49 104 187 308 265 392 l31 33 6 -188 c4 -103 12 -228
18 -278z m-4545 345 c18 -10 47 -39 64 -64 31 -44 94 -168 107 -213 6 -21 4
-21 -26 -13 -48 14 -48 3 0 -16 22 -9 41 -20 41 -24 0 -4 3 -23 6 -41 l7 -34
-22 27 c-24 30 -96 68 -129 68 -17 0 -22 6 -22 28 -1 15 -7 56 -16 92 -28 126
-27 139 6 60 35 -84 45 -99 35 -55 -24 106 -41 149 -67 176 -34 34 -28 37 16
9z m3336 -104 c17 -30 42 -61 54 -70 13 -8 57 -59 97 -113 77 -102 256 -285
394 -403 262 -222 616 -400 947 -474 594 -133 1179 -96 1569 99 162 81 254
157 300 246 11 23 23 39 26 36 9 -10 -80 -156 -145 -238 -103 -131 -213 -200
-412 -263 -275 -85 -484 -118 -751 -117 -216 0 -359 14 -550 51 -261 51 -474
122 -703 237 -291 146 -460 281 -718 575 -165 188 -177 211 -48 88 59 -56 375
-322 475 -399 11 -8 -23 27 -75 79 -142 142 -273 313 -400 525 -49 80 -104
195 -95 195 3 0 19 -24 35 -54z m1714 -70 c9 -35 28 -555 21 -566 -13 -21 -86
-50 -125 -50 -53 0 -98 20 -137 61 -45 48 -55 80 -43 136 13 54 23 75 108 218
62 104 150 225 163 225 4 0 10 -11 13 -24z m496 -144 c49 -148 63 -378 25
-435 -19 -29 -81 -57 -128 -57 -17 0 -52 10 -77 21 -43 19 -110 75 -110 91 0
4 16 32 35 62 51 80 158 301 181 373 l19 61 17 -26 c9 -15 26 -56 38 -90z
m-5471 -159 c11 -10 24 -34 27 -53 l5 -35 -21 36 c-12 19 -34 43 -48 52 -25
15 -25 16 -6 17 12 0 31 -8 43 -17z m69 -305 c68 -71 237 -160 352 -184 185
-39 416 29 564 165 25 23 35 29 28 15 -33 -64 -188 -167 -328 -216 -76 -27
-103 -32 -184 -32 -195 1 -373 95 -479 254 -58 87 -83 154 -34 90 15 -19 52
-61 81 -92z m5727 -101 c39 -1 88 1 110 6 l40 7 -39 -21 c-79 -43 -203 -32
-251 22 -18 19 -18 19 26 4 24 -9 76 -17 114 -18z m-455 -93 c81 -7 83 -8 45
-16 -50 -12 -121 -3 -189 22 -88 33 -100 52 -16 26 41 -13 113 -27 160 -32z
m-1355 -219 c61 -33 164 -80 230 -107 130 -52 135 -64 9 -22 -146 48 -399 184
-444 239 -8 10 10 2 40 -17 30 -19 105 -61 165 -93z m2158 -200 c-222 -104
-571 -162 -914 -152 -193 5 -283 21 -455 80 -93 32 -149 56 -132 57 4 0 53
-11 110 -25 238 -58 545 -92 725 -81 213 13 416 53 623 125 113 39 132 37 43
-4z m1200 -161 c43 -4 76 -10 75 -13 -2 -4 -36 -48 -77 -99 -83 -102 -73 -98
-202 -83 l-56 6 61 103 c59 99 62 103 91 98 17 -3 65 -8 108 -12z m-4223 -118
c0 -2 29 -172 66 -378 36 -205 78 -452 95 -548 16 -96 32 -183 35 -192 5 -16
-4 -18 -100 -18 l-104 0 -6 28 c-3 15 -10 60 -16 100 l-12 72 -111 -6 c-62 -4
-113 -8 -115 -9 -2 -2 -9 -46 -15 -99 l-11 -96 -103 0 c-102 0 -103 0 -98 23
2 12 18 103 35 202 17 99 57 322 90 495 33 173 63 338 67 365 l8 50 95 6 c141
8 200 9 200 5z m500 -461 l0 -465 150 0 150 0 0 -100 0 -100 -258 0 -258 0 -3
565 -3 565 111 0 111 0 0 -465z m598 -112 l2 -563 -110 0 -110 0 0 549 c0 302
-3 557 -6 566 -6 14 6 15 107 13 l114 -3 3 -562z m-1711 495 l63 -62 0 -180 0
-180 -37 -38 -36 -37 36 -45 37 -44 0 -184 0 -184 -62 -61 -63 -62 -237 -7
-238 -7 0 567 0 566 33 1 c17 1 106 5 197 9 91 3 183 7 205 8 36 2 45 -3 102
-60z m2196 50 l227 -12 0 -80 0 -81 -170 -367 c-93 -202 -170 -370 -170 -372
0 -3 78 -7 173 -8 l172 -3 3 -102 3 -102 -238 5 c-131 2 -269 7 -308 10 l-70
5 -3 78 -3 77 181 368 c100 202 179 371 175 374 -3 3 -75 8 -160 10 l-155 4 0
104 0 104 58 0 c31 0 159 -5 285 -12z m-2843 -582 l0 -564 -106 -7 c-58 -4
-107 -5 -109 -3 -2 2 -5 258 -6 568 l-1 565 103 5 c57 3 107 4 112 2 4 -2 7
-257 7 -566z m3646 541 c7 -7 214 -1078 214 -1108 0 -11 -21 -13 -104 -11
-119 4 -106 -10 -127 128 l-12 82 -36 6 c-20 3 -73 6 -117 6 -93 0 -87 6 -99
-105 -11 -101 -4 -95 -108 -95 -51 0 -98 4 -105 9 -11 7 -10 30 8 127 26 147
190 966 195 974 3 6 285 -7 291 -13z m-3984 -553 c2 -311 1 -567 -2 -569 -3
-1 -53 -6 -112 -10 -77 -5 -108 -4 -108 4 0 13 -210 552 -219 563 -3 4 -5
-127 -3 -291 l3 -298 -77 -6 c-42 -4 -90 -7 -106 -7 l-28 0 0 564 0 563 38 7
c20 3 67 6 103 6 l67 0 120 -302 121 -303 0 315 0 315 68 6 c37 3 83 6 100 7
l33 2 2 -566z m4618 540 l145 -6 65 -64 65 -63 -3 -136 -3 -135 -62 6 c-34 3
-81 7 -104 10 l-43 5 0 90 0 89 -57 0 c-32 0 -75 3 -95 6 l-38 7 0 -367 c0
-201 3 -366 8 -367 4 0 49 -4 100 -7 l92 -7 0 83 0 82 89 0 c49 0 96 -3 105
-6 13 -5 16 -26 16 -128 l0 -122 -58 -57 -57 -57 -200 12 -200 11 -57 61 -58
61 0 230 c0 127 -3 328 -7 449 l-6 219 64 58 c62 57 66 59 109 54 25 -2 110
-7 190 -11z m605 -35 c2 -3 6 -261 7 -573 l3 -568 -105 7 c-58 4 -107 9 -109
11 -2 2 -6 258 -9 570 l-5 567 107 -5 c58 -3 108 -7 111 -9z m-6165 -76 c7
-32 23 -110 36 -173 14 -63 34 -164 44 -225 11 -60 45 -231 75 -379 30 -148
53 -271 50 -274 -2 -3 -50 -9 -106 -15 -80 -8 -103 -7 -109 3 -4 7 -15 51 -24
98 -8 46 -16 86 -18 87 -5 5 -223 -20 -234 -27 -6 -4 -16 -51 -23 -106 l-13
-98 -101 -11 c-56 -7 -104 -10 -106 -8 -6 7 49 298 123 653 36 169 72 350 82
402 9 52 18 97 20 99 2 2 65 9 141 16 76 7 141 13 145 14 4 0 12 -25 18 -56z
m6595 42 l180 -16 71 -72 72 -72 6 -437 6 -437 -51 -58 c-28 -32 -56 -61 -64
-65 -7 -4 -104 1 -215 11 l-202 18 -57 57 -56 56 -5 458 -6 457 55 58 c31 31
62 57 71 57 8 0 96 -7 195 -15z m640 -55 c15 -6 48 -83 140 -328 l120 -320 3
315 2 315 33 -5 c17 -4 64 -9 103 -13 l71 -6 6 -307 c4 -168 7 -431 7 -585 l0
-279 -62 7 c-35 4 -83 9 -108 12 l-45 6 -55 136 c-30 76 -87 220 -127 322
l-73 185 0 -308 0 -309 -47 6 c-27 3 -74 8 -105 12 l-58 6 0 332 c0 182 -3
443 -7 579 l-6 248 94 -7 c52 -4 103 -10 114 -14z m-7901 -57 l66 -58 0 -127
c0 -71 -3 -128 -7 -128 -12 0 -143 -19 -180 -25 l-33 -6 0 91 0 92 -37 -6
c-21 -3 -68 -8 -105 -12 l-67 -6 -3 -147 c-2 -80 -2 -245 0 -365 l3 -219 79 7
c44 3 93 9 110 12 l30 6 -6 83 -7 82 98 13 c54 6 104 14 112 17 10 4 13 -20
13 -123 l0 -127 -54 -72 c-62 -82 -26 -70 -296 -101 -187 -21 -181 -22 -244
39 l-54 52 -6 457 -6 458 63 67 63 66 180 17 c98 10 189 18 201 19 13 1 47
-21 87 -56z"/>
<path d="M6344 9469 c7 -32 -9 -41 -54 -32 -47 9 -35 -3 22 -22 192 -62 540
-292 649 -428 l32 -40 -64 7 -64 6 125 -43 c69 -24 144 -53 167 -65 23 -12 45
-22 49 -22 12 0 -128 146 -219 228 -146 131 -403 299 -535 348 -40 14 -72 29
-72 33 0 3 -10 17 -21 31 l-21 25 6 -26z"/>
<path d="M6562 7330 c0 -14 2 -19 5 -12 2 6 2 18 0 25 -3 6 -5 1 -5 -13z"/>
<path d="M5982 7335 c0 -16 2 -22 5 -12 2 9 2 23 0 30 -3 6 -5 -1 -5 -18z"/>
<path d="M5932 7320 c0 -14 2 -19 5 -12 2 6 2 18 0 25 -3 6 -5 1 -5 -13z"/>
<path d="M5942 7255 c0 -16 2 -22 5 -12 2 9 2 23 0 30 -3 6 -5 -1 -5 -18z"/>
<path d="M5973 7235 c0 -27 2 -38 4 -22 2 15 2 37 0 50 -2 12 -4 0 -4 -28z"/>
<path d="M5957 7135 c3 -44 7 -82 9 -84 7 -8 3 84 -6 124 -6 29 -7 17 -3 -40z"/>
<path d="M5842 7130 c0 -14 2 -19 5 -12 2 6 2 18 0 25 -3 6 -5 1 -5 -13z"/>
<path d="M5852 7070 c0 -14 2 -19 5 -12 2 6 2 18 0 25 -3 6 -5 1 -5 -13z"/>
<path d="M5861 7024 c0 -11 3 -14 6 -6 3 7 2 16 -1 19 -3 4 -6 -2 -5 -13z"/>
<path d="M5872 6980 c0 -14 2 -19 5 -12 2 6 2 18 0 25 -3 6 -5 1 -5 -13z"/>
<path d="M5881 6934 c0 -11 3 -14 6 -6 3 7 2 16 -1 19 -3 4 -6 -2 -5 -13z"/>
<path d="M5891 6884 c0 -11 3 -14 6 -6 3 7 2 16 -1 19 -3 4 -6 -2 -5 -13z"/>
<path d="M5902 6830 c0 -14 2 -19 5 -12 2 6 2 18 0 25 -3 6 -5 1 -5 -13z"/>
<path d="M5912 6780 c0 -14 2 -19 5 -12 2 6 2 18 0 25 -3 6 -5 1 -5 -13z"/>
<path d="M5921 6734 c0 -11 3 -14 6 -6 3 7 2 16 -1 19 -3 4 -6 -2 -5 -13z"/>
<path d="M7231 4574 c0 -11 3 -14 6 -6 3 7 2 16 -1 19 -3 4 -6 -2 -5 -13z"/>
<path d="M7233 4445 c0 -33 2 -45 4 -27 2 18 2 45 0 60 -2 15 -4 0 -4 -33z"/>
<path d="M6221 4534 c0 -11 3 -14 6 -6 3 7 2 16 -1 19 -3 4 -6 -2 -5 -13z"/>
<path d="M6722 4630 c0 -19 2 -27 5 -17 2 9 2 25 0 35 -3 9 -5 1 -5 -18z"/>
<path d="M6711 4554 c0 -11 3 -14 6 -6 3 7 2 16 -1 19 -3 4 -6 -2 -5 -13z"/>
<path d="M6751 4424 c0 -11 3 -14 6 -6 3 7 2 16 -1 19 -3 4 -6 -2 -5 -13z"/>
<path d="M4281 3015 c-16 -102 -59 -343 -66 -373 -6 -23 -5 -23 67 -16 40 3
75 8 77 10 2 2 -11 94 -27 206 -17 112 -33 214 -34 228 -2 14 -9 -11 -17 -55z"/>
<path d="M3583 3153 l-73 -4 0 -129 0 -130 64 0 c101 0 96 -7 96 141 0 71 -3
128 -7 127 -5 -1 -41 -4 -80 -5z"/>
<path d="M3508 2545 l-3 -135 83 0 82 0 0 135 0 135 -79 0 -80 0 -3 -135z"/>
<path d="M6637 2833 c-21 -118 -37 -216 -35 -218 8 -8 148 -16 148 -9 0 15
-69 437 -72 440 -2 1 -20 -94 -41 -213z"/>
<path d="M1696 2732 c-21 -120 -41 -223 -44 -230 -4 -11 10 -13 74 -7 43 4 81
9 83 11 3 3 -66 435 -71 439 -2 2 -20 -94 -42 -213z"/>
<path d="M8400 2658 l0 -365 101 -8 c55 -4 103 -5 105 -3 2 3 1 167 -3 366
l-6 362 -46 0 c-25 0 -70 3 -98 6 l-53 7 0 -365z"/>
</g>
</svg>
